<?xml version="1.0" encoding="UTF-8" standalone="no"?>
<!-- Created with Inkscape (http://www.inkscape.org/) -->

<svg
   id="svg2342"
   sodipodi:docname="bad.svg"
   viewBox="0 0 332.22612 476.23981"
   sodipodi:version="0.32"
   version="1.0"
   inkscape:version="1.4 (86a8ad7, 2024-10-11)"
   width="354.37451"
   height="507.98914"
   inkscape:export-filename="bad2.png"
   inkscape:export-xdpi="96"
   inkscape:export-ydpi="96"
   xmlns:inkscape="http://www.inkscape.org/namespaces/inkscape"
   xmlns:sodipodi="http://sodipodi.sourceforge.net/DTD/sodipodi-0.dtd"
   xmlns="http://www.w3.org/2000/svg"
   xmlns:svg="http://www.w3.org/2000/svg"
   xmlns:rdf="http://www.w3.org/1999/02/22-rdf-syntax-ns#"
   xmlns:cc="http://creativecommons.org/ns#"
   xmlns:dc="http://purl.org/dc/elements/1.1/">
  <defs
     id="defs31" />
  <sodipodi:namedview
     id="base"
     bordercolor="#666666"
     inkscape:pageshadow="2"
     inkscape:window-y="1072"
     pagecolor="#ffffff"
     inkscape:window-height="1027"
     inkscape:window-maximized="1"
     inkscape:zoom="1.1893387"
     inkscape:window-x="-8"
     showgrid="false"
     borderopacity="1.0"
     inkscape:current-layer="svg2342"
     inkscape:cx="438.89937"
     inkscape:cy="314.88087"
     inkscape:window-width="1920"
     inkscape:pageopacity="0.0"
     showguides="true"
     fit-margin-top="0"
     fit-margin-left="0"
     fit-margin-right="0"
     fit-margin-bottom="0"
     inkscape:showpageshadow="0"
     inkscape:pagecheckerboard="0"
     inkscape:deskcolor="#505050" />
  <path
     sodipodi:nodetypes="cccccsccccccsccsaaczcscccccccccccccscccccscccczcccccsccccscscccc"
     d="m 110.19,474.21931 c -1.58,-1.69 -2.35,-1.86 -4.61,-1 -3.07,1.17 -10.89,1.39 -11.94,0.33 -0.39,-0.38 -2.62,-0.58 -4.96,-0.43 -3.98,0.24 -4.35,0.04 -5.95,-3.3 -1.09,-2.29 -2.4,-3.57 -3.65,-3.57 -1.32,0 -2.36,-1.13 -3.22,-3.52 -1,-2.75 -2.08,-3.76 -4.97,-4.63 -3.39,-1.01 -3.91,-1.69 -6.3,-8.18 -1.44,-3.88 -3.51,-8.01 -4.59,-9.17 -1.09,-1.16 -2.96,-5.46 -4.16,-9.55 -2.56,-8.78 -3.49,-10.18 -4.39,-6.59 -0.37,1.45 -1.06,2.64 -1.54,2.64 -0.98,0 -1.12,-0.54 -3.94,-14.47 -1.94,-9.58 -3.66,-13.55 -4.68,-10.78 -0.25,0.69 -0.92,1.25 -1.48,1.25 -0.68,0 -0.43198,-10.36771 -0.29,-15.55 0.34967,-12.76295 0.31137,-25.67914 2.81,-38.2 3.66279,-18.35458 13.25,-44.59 17.69,-53.29 2.39,-4.68 3.945117,-7.06202 -3.603276,-16.45297 C 48.86833,270.36539 54.389442,266.91595 55.040827,258.98243 27.537239,251.61787 2.0310414,248.49584 0,211.64931 c 0,-6.3 2.53,-18.48 4.76,-22.9 8.15,-16.19 25.07,-38.95 33.92,-45.64 4.91,-3.7 11.41,-7.85 12.33,-7.85 0.28,-0.01 1.09,1.31 1.8,2.93 2.2,4.95 8.38,10.95 12.06,11.69 l 3.37,0.67 -0.73,-9.4 c -0.4,-5.17 -1.15,-9.92 -1.67,-10.56 -0.6,-0.75 -0.38,-3.12 0.63,-6.6 1.31,-4.47 1.42,-7.43 0.68,-16.83 -0.58,-7.200003 -0.56,-11.850005 0.05,-12.600005 0.52,-0.66 3.28,-1.923 6.13,-2.811 2.84,-0.887 7.76,-2.591 10.92,-3.787 5.42,-2.048 5.75,-2.369 5.75,-5.509 0,-5.639 -3.94,-29.358 -5.94,-35.7 -3.21,-10.235 -3.3,-11.372 -1.15,-14.855 C 97.136356,8.9414149 151.19254,-1.9040729 197.51028,0.27365348 245.22784,5.3743763 312.07094,23.896177 324.95,86.743805 c 1.37978,6.521777 0.90438,10.883976 -1.91,14.356005 -2.15,2.25 -5.37,6.24 -7.17,8.87 -1.8,2.63 -5.77,8.01 -8.82,11.96 -10.05,12.99 -13.86,18.8 -15.97,24.35 -3.5,9.22 -3.29,9.77 8.21,21.75 12.59,13.13 18.01,20.18 23.98,31.22 7.62,14.11 13.41118,37.84156 4.29883,73.22958 -9.11235,35.38803 -55.87113,47.00102 -67.14883,42.47391 -2.96,-0.44 -3.05,1.25651 -5.23,8.46651 -1.22,4.03 -2.92,10.71 -3.79,14.83 -3.66,17.46 -5.4,24.85 -7.19,30.5 -4.51,14.3 -11.86,31.87 -17.96,43 -6.52,11.89 -17.91,29.5 -19.07,29.5 -0.33,0 -1.56,-1.2 -2.73,-2.66 l -2.12,-2.67 -8.92,9.26 c -9.76,10.15 -16.51,15.56 -20.69,16.61 -2.44,0.61 -2.72,0.41 -2.72,-1.93 0,-3.19 -0.24,-3.21 -3.44,-0.25 -4.43,4.11 -14.85,8.64 -19.85,8.64 -2.5,0 -4.69,-0.4 -4.88,-0.89 -0.18,-0.49 -3.27,0.78 -6.86,2.83 -10.78,6.13 -21.24,7.84 -24.78,4.03 z"
     inkscape:connector-curvature="0"
     style="fill:#000000"
     id="path2351" />
  <path
     sodipodi:nodetypes="cccccccccccccccccscsccccccsccccsccccccsccscccsccccscccccccccsccccscccccccssccsccccccccscccscccsssccccc"
     d="m 141.52,421.38931 c 10.72,-3.99 18.15,-7.66 23.72,-11.7 4.44,-3.23 17.97,-17.83 27.26,-29.44 2.75,-3.43 6.63,-8.1 8.62,-10.37 2,-2.27 4.87,-6.6 6.4,-9.63 1.52,-3.02 5.35,-9.34 8.5,-14.03 13.28,-19.74 19.31,-35.25 27.43,-70.55 2.99,-13 3,-13.03 1.05,-11.42 -2.03,1.69 -1.91,0.98 1,-5.59 2.86,-6.46 3.34,-14.91 1.09,-19.21 -1.54,-2.94 -5.66,-7.04 -9.59,-9.52 -1.37,-0.87 -8.08,-2.77 -14.9,-4.24 l -12.4,-2.66 -12.6,1.6 c -12.85,1.63 -14.11,1.92 -24.6,5.64 -3.3,1.17 -7.43,2.49 -9.19,2.94 -1.75,0.44 -4.73,1.76 -6.62,2.92 -3.8,2.36 -4.69,2.58 -4.69,1.16 0,-2.44 15.09,-9.23 24.5,-11.02 2.75,-0.52 7.25,-1.43 10,-2.02 2.75,-0.59 8.6,-1.62 13,-2.29 l 8,-1.21 0.79,-6.5 c 0.43,-3.57 1.63,-8.22 2.66,-10.32 1.84,-3.75 1.84,-3.93 -0.11,-9.7 -3.0639,-9.07345 -31.19561,-42.80037 -94.34,-33.85 -8.3,1.17 -20.5,4.68 -20.5,5.9 0,1.6 2.08,2.15 3.55,0.93 1.21,-1 2.08,-0.57 4.84,2.35 1.85,1.97 3.71,5.07 4.13,6.88 0.93,4.04 1.21,17.42 0.38,18.24 -0.83,0.84 -7.29,-1.99 -8.86,-3.88 -2.6,-3.13 -11.17,-6.67 -14.46,-5.98 -4.8,1.02 -6.32,3.06 -8.2,11.02 -1.46,6.21 -1.57,8.64 -0.68,15.15 0.58,4.27 1.36,8.66 1.72,9.76 0.57,1.74 -0.13,2.25 -5.48,3.9 -7.62,2.36 -11.05,5.19 -14.36,11.82 -2.1,4.22 -2.58,6.6 -2.58,12.92 0,4.26 0.36,7.97 0.81,8.24 0.44,0.28 3.37,-1.57 6.5,-4.11 4.28,-3.46 5.69,-5.26 5.69,-7.21 0,-3.73 4.26,-9.46 10.28,-13.82 14.135205,-10.22942 16.516438,-9.0979 24.34,-15.8 3.7,-3.16 5.7,-5.76 6.52,-8.5 0.65,-2.16 1.53,-3.94 1.96,-3.94 3.27,0 0.64,7 -4.39,11.67 -1.76,1.65 -7.87,5.87 -13.58,9.39 -12.83,7.92 -18.22,12.59 -20.59,17.86 l -1.84,4.08 c 2.696826,5.465 14.349549,28 23.13,28 3.37,0 11.92,-3.08 16.9,-6.08 10.09,-6.08 23.31,-18.33 24.78,-22.93 0.96,-3.02 -2.42,-5.67 -8.41,-6.59 -3.36,-0.51 -5.58,-0.17 -9.42,1.46 -5.71,2.41 -7.09,2.11 -3.57,-0.77 2.76,-2.25 12.52,-3.53 17.8,-2.32 4.86,1.11 7.43,4.9 6.54,9.65 -0.61,3.27 -2.14,4.88 -12.32,13.01 -6.4,5.1 -14.33,10.66 -17.63,12.36 -5.74,2.95 -14.44,6.21 -16.58,6.21 -3.06,0 -19.09,-18.32 -21.12,-24.14 -0.56,-1.61 -1.72,-2.85 -2.65,-2.83 -3.63,0.06 -11.89,9.55 -14.05,16.15 -1.05,3.2 -0.95,4.19 0.76,7.5 2.28,4.44 9.35094,11.24218 10.26,12.32 1.10805,1.31376 2.89745,2.2704 2.89745,2.2704 1.79,1.2496 4.63255,1.4996 28.26255,2.0496 26.46,0.62 35.67,0.09 45.72,-2.65 15.47,-4.21 22.87,-9.49 35.59,-25.4 l 9.4,-11.77 -4.24,-0.8 c -2.34,-0.44 -7.96,-0.63 -12.5,-0.43 -4.54,0.21 -8.25,0.09 -8.25,-0.25 0,-2.15 3.17,-3.02 11.03,-3.02 12.46,0 19.18,1.59 23.71,5.6 3.88,3.42 2.86,4.53 -1.74,1.9 -1.37,-0.78 -3.17,-1.43 -4,-1.43 -0.82,0 -4.04,3.47 -7.14,7.72 l -5.63,7.71 -0.5,19 c -0.41,15.56 -0.89,20.36 -2.68,26.5 -2.97,10.17 -7.54,18.4 -13.58,24.45 -2.77,2.78 -8.37,8.8 -12.43,13.38 -11.72,13.2 -22.72,20.67 -34.21,23.2 -4.52,1 -8,1.01 -17,0.04 -13.45,-1.45 -16.65,-2.5 -17.45,-5.7 -0.55,-2.2 0,-7.4 1.24,-11.62 0.205,-0.69 8.59053,-29.18931 10.12484,-35.97054 -2.35441,-0.0548 -6.61595,0.78835 -9.43254,-0.0524 -1.58909,6.24265 -5.2782,21.13726 -5.96117,24.4445 -0.37959,1.83804 -4.23613,15.32844 -5.86113,19.26844 -3.11,7.52 -3.63,13.72 -1.64,19.67 1.41,4.19 3,5.06 13.15,7.18 16.84,3.5 25.15,4.71 32.38,4.71 4.42,0 7.62,0.42 7.62,1 0,0.6 -4.02,1 -10.05,1 H 102.9 l -1.46,3.5 c -1.56,3.73 -1.09,10.23 0.94,13 0.61,0.84 4.5,2.6 8.62,3.92 9.8,3.12 23.24,3.44 30.52,0.72 z"
     inkscape:connector-curvature="0"
     style="fill:#ffd6ad"
     id="path2435" />
  <path
     id="path2433"
     style="fill:#000000"
     d="m 149.00025,225.20857 c 0,1.68 1.01919,1.24076 4.79919,-2.08924 6.6,-5.79 16.90089,-8.76951 19.91089,-5.74951 1.29,1.28 3.2904,0.36023 3.2904,-1.51977 0,-0.71 -0.86162,-2.07124 -1.91162,-3.02124 -2.33,-2.1 -9.81839,-1.34038 -13.34839,1.36962 -2.81,2.15 -5.74035,3.25065 -5.74035,2.16065 2.97901,-9.45861 17.05514,-14.28634 13.31001,-14.48291 -3.74512,-0.19657 -20.31013,17.69652 -20.31013,23.3324 z"
     sodipodi:nodetypes="sccsccscs" />
  <path
     d="m 92.93,209.66931 c -2.01,-2.14 -3.16,-2.52 -6.68,-2.24 -2.53,0.2 -4.25,-0.09 -4.25,-0.72 0,-2.29 2.65,-3.46 7.86,-3.46 h 5.45 c -4.784328,-6.08894 -13.969139,-8.63589 -12.99,-9.65 0.755346,-0.75535 15.68,5.40461 15.68,14.65 0,4.75 -1.54,5.18 -5.07,1.42 z"
     inkscape:connector-curvature="0"
     style="fill:#000000"
     id="path2431"
     sodipodi:nodetypes="ccssccsc" />
  <path
     d="m 133.67,209.58931 c -0.37,-0.37 -0.67,-1.5 -0.67,-2.5 0,-1.38 -0.76,-1.84 -3.07,-1.84 -2.59,0 -2.98,-0.31 -2.5,-2 0.32,-1.1 0.82,-2.86 1.11,-3.92 0.4,-1.4 -0.01,-2.02 -1.5,-2.25 -1.95,-0.31 -1.9,-0.53 0.95,-4.83 1.65,-2.47 2.55,-4.65 2,-4.83 -2.22,-0.75 -0.49,-1.99 10.01,-7.17 6.05,-2.98 11,-5.95 11,-6.6 0,-0.64 1.2,-1.95 2.67,-2.91 2.18,-1.43 4.1,-1.65 10.58,-1.21 6.87,0.47 8.75,1.04 14.09,4.28 7.33,4.45 10.6,7.3 15.79,13.78 3.65,4.57 5.14,9.66 2.82,9.66 -0.58,0 -2.49,-0.75 -4.25,-1.66 -2.14,-1.12 -6.51,-1.81 -13.2,-2.08 -8.68,-0.36 -11.04,-0.08 -17.85,2.12 -5,1.62 -9.9,4.1 -13.48,6.83 -9.71,7.41 -12.73,8.9 -14.5,7.13 z"
     inkscape:connector-curvature="0"
     style="fill:#000000"
     id="path2429" />
  <path
     sodipodi:nodetypes="cccccscsccsacsc"
     d="m 80.74,404.99931 5.1,-6.25 -5.17,-1.87 c -10.08,-3.64 -11.81,-4.71 -13.26,-8.18 -2.17,-5.22 -1.85,-18.16 0.58,-22.92 1.09,-2.14 5.39341,-15.61105 5.20341,-15.80105 -0.1,-0.1 5.81133,-21.50308 6.74449,-27.81566 -4.43833,-0.65297 -8.14123,-2.43447 -10.66257,-5.54821 -1.46847,-1.81349 -1.03744,-20.34022 -0.86958,-23.24328 -1.0408,-0.38064 -1.55652,-0.58737 -2.44864,-1.38988 -6.43785,26.22732 -9.62212,52.5808 -10.11422,60.56537 -0.12903,2.09365 -0.19166,16.53741 1.15711,24.65271 1.30771,7.86821 3.57,18.19 6.67,22.98 3.68,5.69 8.67,11.07 10.27,11.07 0.93,0 3.99,-2.81 6.8,-6.25 z"
     inkscape:connector-curvature="0"
     style="fill:#ffd6ad"
     id="path2421" />
  <path
     d="m 118.72,372.63931 c 13.06,-5.57 13.95,-6.1 22.36,-13.28 2.19,-1.86 3.81,-3.55 3.61,-3.75 -0.2,-0.2 -7.07,0.35 -15.28,1.22 -13.35,1.42 -22.54,1.46 -39.29,0.18 -3.26,-0.25 -3.44,-0.08 -4.86,4.74 -0.97,3.31 -1.17,5.85 -0.59,7.5 0.81,2.33 1.56,2.58 10.85,3.62 14.54,1.62 18.96,1.57 23.2,-0.23 z"
     inkscape:connector-curvature="0"
     style="fill:#ffffff"
     id="path2417" />
  <path
     sodipodi:nodetypes="ccccccccccsscc"
     d="m 128.5,353.58931 c 10.48,-0.46 14.9,-1.06 17.56,-2.4 4.08,-2.04 17.38,-16.42 16.5,-17.84 -0.98,-1.59 -10.53,-4.33 -13.38,-3.84 -4.73,0.82 -12.59,3 -15.83,4.39 -4.76,2.04 -6,1.68 -3.48,-1.01 l 2.23,-2.37 -2.97,-0.59 c -4.48,-0.9 -15.18,1.14 -19.13,3.64 -1.92,1.22 -4.72,2.84 -6.22,3.61 -3.56,1.81 -8.78,7.38 -8.78,7.38 -1.79265,2.76839 -7.78762,9.2075 1.5,9.78 2.49814,0.15399 0.9,0.66 7.5,0.36 5.78,-0.27 16.8,-0.77 24.5,-1.11 z"
     inkscape:connector-curvature="0"
     style="fill:#ff0010"
     id="path2413" />
  <path
     d="m 119,319.32931 c 13.56,-1.01 25.41519,-3.79748 31.21,-5.88 5.79481,-2.08252 16.21164,-7.95235 22.41,-13 2.00853,-1.75899 2.19,-2.32 2.84,-13.24 0.4,-6.66 0.53,-12.3 0.29,-12.54 -0.24,-0.24 -2.91266,0.47881 -7.20476,4.67357 -10.70301,8.57742 -15.71524,9.67643 -24.04524,12.60643 -22.34682,6.52323 -50.792639,2.8 -74.5,2.8 v 10.22 c 0,11.38 -0.3,10.87 8.13,13.68 8.28,2.75 12.23,2.82 40.87,0.68 z"
     inkscape:connector-curvature="0"
     style="fill:#ffffff"
     id="path2407"
     sodipodi:nodetypes="czccscccscc" />
  <path
     d="m 319.75937,284.09177 c 16.17596,-26.9805 7.75109,-69.75395 3.00063,-78.04246 -15.53,-27.13 -29.32,-43.3 -44.76,-52.48 -2.47,-1.48 -6.66,-4.39 -9.3,-6.47 -2.64,-2.08 -8.81,-5.79 -13.72,-8.25 -4.9,-2.45 -11.74,-6.02 -15.2,-7.92 -3.45,-1.9 -9.65,-4.45 -13.78,-5.68 -4.12,-1.22 -10.65,-3.25 -14.5,-4.52 -13.42,-4.42 -18.41,-5.49 -32.52,-6.98 -19.43,-2.05 -18.08,-2.25 -20.97,3.19 -3.96,7.46 -10.68,15.51 -16.3,19.53 -8,5.7 -17.27,10.48 -23.01,11.85 -2.86,0.68 -6.1,1.79 -7.2,2.46 -3.65,2.23 -19.72,3.77 -33.18,3.18 -16.99,-0.74 -21.25,-2.43 -27.62,-10.96 -1.54,-2.06 -3.25,-3.75 -3.81,-3.75 -0.56,0 -4.5,3.49 -8.76,7.75 -7.32,7.32 -17.2,19.87 -25.47,32.32 -6.66,10.03 -10.12,27.82 -7.75,39.85 3.76,19.15 13.94,29.49 31.59,32.1 4.4,0.65 8.78,1.59 9.74,2.08 0.95,0.5 2.92,0.9 4.36,0.9 2.24,0 2.55,-0.33 2.03,-2.25 -0.33,-1.23 -0.61,-2.8 -0.61,-3.47 -0.01,-0.78 -1.37,-1.14 -3.77,-1 l -3.75,0.22 -0.3,-4.75 -0.31,-4.75 h -3.94 c -3.73,0 -3.95,-0.17 -3.95,-3.03 0,-1.67 0.68,-4.66 1.51,-6.65 1.75,-4.18 1.46,-4.91 -1.36,-3.4 -5.86,3.14 -7.07,-1.66 -1.91,-7.54 l 3.24,-3.69 -3.74,0.7 c -5.32,1 -4.97,-1.45 1.01,-7.07 10.88,-10.22 17.11,-12.04 30.23,-8.82 4.03,0.98 7.5,1.37 7.93,0.88 0.41,-0.48 1.31,-2.9 1.99,-5.38 0.67,-2.47 1.46,-5.3 1.74,-6.27 0.45,-1.56 0.02,-1.7 -3.55,-1.13 -5.01,0.81 -6.17,-1.11 -3.75,-6.19 l 1.63,-3.41 h -7.15 l 3.151747,-5.63678 c 2.17,-2.61 7.185949,-3.77231 7.545949,-5.24231 0.52,-2.16 -0.767696,-4.07091 2.482304,-4.62091 4.39,-0.74 13.495038,0.37706 15.769165,2.77385 37.415865,-11.9772 89.241895,-14.38345 120.920835,28.36615 1.35,2.95 2.7,5.36 3,5.36 0.3,0 4.42,-0.98 9.17,-2.19 6.98,-1.78 11.43,-2.19 23.14,-2.17 13.87,0.03 14.87,0.17 22.96,3.25 11.83,4.5 12.23,4.97 6.53,7.87 -5.3,2.69 -5.57,1.6 2.72,10.93 6.08,6.85 6.49,13.1 0.78,11.96 l -2.99,-0.6 v 5.48 c 0,4.2 -0.35,5.47 -1.5,5.47 -0.82,0 -1.5,0.42 -1.5,0.92 0,0.51 -0.27,1.63 -0.61,2.5 -0.45,1.19 0.03,1.58 1.97,1.58 5.15,0 14.04,4.05 17.81,8.11 10.1426,10.98222 8.6688,44.84142 -25.56,61.89 3.96957,0.31327 33.9734,-2.17705 50.14937,-29.15754 z"
     inkscape:connector-curvature="0"
     style="fill:#009452"
     id="path2403"
     sodipodi:nodetypes="zccscccccccccccssccccsccccccsscccccccccccccccccccscccccccssscsccz" />
  <path
     d="m 272.55,309.12931 c 6.04,-2.84 16.71,-14.6 21.12,-23.27 4.76349,-8.23275 7.2005,-24.56707 0.33,-32.13 -6.61,-7.08 -20.38,-9.34 -32,-5.26 -5.25,1.84 -6.46,2.67 -6.31,4.28 0.11,1.1 0.71,6.95 1.33,13 0.62,6.05 1.04,17.75 0.93,26 -0.26,18.52 -0.4,17.39 2.3,18.47 3.71,1.49 7.52,1.15 12.3,-1.09 z"
     inkscape:connector-curvature="0"
     style="fill:#ffd6ad"
     id="path2401"
     sodipodi:nodetypes="cccccsccc" />
  <path
     id="path2399"
     style="fill:#000000"
     d="m 282.4878,257.21723 c -9.8822,-0.43686 -14.48337,6.57558 -19.37806,14.28223 l -2.2705,3.75 h 4.91089 c 4.15,0 5.10896,0.37037 6.18896,2.38037 1.53,2.87 0.82118,5.50879 -2.41882,9.00879 -1.33,1.44 -2.04936,2.61108 -1.58936,2.61108 2.19459,0 11.68251,-12.66597 0.44861,-15 -2.35961,-0.49025 -4.37988,-0.27988 -4.37988,-0.62988 0,-1.3 4.41985,-7.97999 7.34985,-11.11999 11.91406,-10.34696 16.54636,0.95822 16.14075,2.80883 -0.41,1.84 -0.2397,2.94068 0.4303,2.94068 1.66,0 1.32914,-8.55094 -0.38086,-9.96094 -0.91875,-0.765 -2.86235,-1.07437 -5.05188,-1.07117 z"
     sodipodi:nodetypes="sccsccsssccscs" />
  <path
     sodipodi:nodetypes="scsccccccscscccccccscccsscccccsscscscsccccscccccccccccscscccccccccccccccssccsccsscccscccccccccsccccccccscscsccccssscsccsscccccc"
     d="m 123.03,471.98931 c 1.94,-0.68 5.8,-2.7 8.59,-4.49 2.78,-1.78 5.44,-3.25 5.91,-3.25 0.48,0 2.16,-1.23 3.74,-2.75 2.75,-2.62 2.94,-2.66 4.24,-0.9 0.74,1.02 1.11,2.48 0.82,3.25 -0.89,2.31 4.02,1.69 10.35,-1.31 5.05,-2.39 11.03,-7.39 15.16,-12.68 1.86,-2.38 4.52,-0.19 3.71,3.07 -0.32,1.28 -0.32,2.32 0.01,2.32 1.41,0 13.55,-9.89 20.59,-16.77 7.13,-6.98 9.85,-8.26 9.85,-4.67 0,3.54 2.99,0.65 9.14,-8.82 9.57,-14.77 13.06,-21.56 18.78,-36.64 12.97,-34.18 21.12,-75.37 21.06,-106.45 -0.02,-11.79 -1.45,-24.51 -2.91,-25.98 -0.5,-0.5 -1.78,3.34 -2.99,8.98 -7.23,33.76 -11.02,45.47 -21.18,65.35 -8.24,16.13 -16.71,29.33 -32.19,50.15 -9.98,13.42 -25.14,29.85 -27.53,29.85 -0.45,0 -3.26,1.83 -6.25,4.06 -12.69,9.48 -26.45,12.99 -43.28,11.04 -11.19,-1.3 -16.68,-4.21 -19.03,-10.09 -1.9,-4.75 -2.14,-13.09 -0.42,-14.81 0.93,-0.93 0,-1.2 -4.19,-1.2 -5.21,0 -5.54,0.17 -10.21,5.22 -4.56,4.94 -4.71,5.27 -2.7,6.01 2.3,0.85 2.15,1.25 -2.48,6.52 -2.42,2.77 -3.24,2.83 -3.91,0.26 -0.28,-1.09 -1.62,-2.4 -2.98,-2.92 -11.63811,-5.17691 -18.3817,-25.86966 -18.71,-40.84 -0.17201,-7.84349 -0.90099,-13.75135 -0.219,-24.10707 1.91847,-29.13095 9.28955,-52.23791 10.43246,-57.93769 -2.43049,5.96637 -15.53027,41.59419 -19.19246,61.04299 -1.83783,9.76019 -1.711,24.08177 -2.501,31.21177 -0.8,7.13 -1.32,13.09 -1.16,13.25 0.16,0.16 0.89,-0.83 1.62,-2.21 0.74,-1.37 1.94,-2.5 2.67,-2.5 1.03,0 1.34,2.58 1.38,11.25 0.03,7.25 0.52,12.32 1.4,14.25 l 1.36,3 1.75,-4.25 c 0.96,-2.33 2.09,-4.25 2.51,-4.25 0.42,0 1.95,5.07 3.4,11.25 1.45,6.19 3.21,12.15 3.91,13.25 0.71,1.1 2.53,5.46 4.06,9.69 3.02,8.34 5.05,10.28 6.57,6.29 1.39,-3.64 2.77,-3.03 4,1.77 1.81,7.08 1.84,7.12 3.46,5.78 1.58,-1.31 3.53,-0.6 3.54,1.28 0,0.66 0.48,2.92 1.07,5.04 1.04,3.73 1.18,3.83 4.6,3.19 2.63,-0.5 4.01,-0.22 5.45,1.08 1.82,1.64 2.31,1.65 9.15,0.05 9.09,-2.13 9.72,-2.11 9.72,0.33 0,1.6 0.66,2 3.25,1.99 1.79,-0.01 4.84,-0.57 6.78,-1.25 z m 16.29,-264.9 c 1.2,-0.64 3.32,-2.39 4.72,-3.89 7.16,-7.65 30.77,-14.53 40.96,-11.93 2.48,0.63 5.78,1.39 7.34,1.69 l 2.84,0.55 -1.5,-2.88 c -2.47,-4.71 -12.6,-13.31 -20.18,-17.13 -4.99,-2.51 -13.19,-3.69 -16.5,-2.37 -1.55,0.62 -1.88,1.02 -0.86,1.06 3.09,0.12 2.9,2.8 -0.23,3.43 -1.62,0.33 -6.2,2.01 -10.18,3.73 -5.72,2.49 -8.48,4.5 -13.23,9.65 -4.16,4.52 -5.34,6.3 -3.83,5.84 3.01,-0.93 3.65,0.71 1.91,4.87 l -1.48,3.54 h 2.95 c 2.48,0 2.95,0.4 2.95,2.5 0,2.77 1.04,3.09 4.32,1.34 z m 125.89,37.64 c 5.19,-0.76 7.79,-3.43 7.79,-8 0,-1.88 0.49,-2.55 1.75,-2.42 3.15,0.32 3.21,0 1.07,-5.58 -1.16,-3.03 -1.87,-5.76 -1.57,-6.06 0.77807,-0.77807 7.80222,2.86778 8.64,2.03 2.65187,-2.65187 -13.76215,-16.20566 -13.81,-16.72 2.59854,-2.56977 6.96765,-3.53906 10.42,-4.92 -9.42181,-4.85288 -22.10988,-9.84202 -42.2,-6.41738 -22.17,3.78 -26.3,7.07738 -26.3,17.96738 v 6.21 c 8.47271,1.75474 17.44747,2.21865 25.53,5.53 1.80739,0.83527 15.47,7.68104 15.47,23.76 4.12664,-2.45181 8.43703,-4.56265 13.21,-5.38 z m -214.63,0.76 c 0.6,-0.41 2.56,-3.97 4.36,-7.91 3.54,-7.72 7.3,-11.46 14.93,-14.82 l 4.37,-1.92 -0.62,-5.94 c -0.34,-3.27 -0.62,-7.02 -0.62,-8.34 0,-2.99 -4.15,-4.91 -13.45,-6.23 -8.66,-1.23 -12.64,-0.01 -18.81,5.76 l -5,4.66 3.72,0.5 3.72,0.5 -3.69,4.82 c -2.03,2.65 -3.46,5.05 -3.18,5.33 0.28,0.27 1.94,-0.24 3.69,-1.15 1.75,-0.9 3.32,-1.5 3.49,-1.32 0.17,0.18 -0.5,2.91 -1.48,6.07 -3.03,9.72 -3.18,10.75 -1.65,10.75 0.77,0 1.96,-0.67 2.64,-1.5 2.16,-2.6 3,-1.65 3,3.42 0,7.36 1.35,9.52 4.58,7.32 z m 56.19,-60.49 c -0.49,-7.73 -3.83,-17.32 -4.54,-13 -0.41,2.49 -2.98,3.06 -3.83,0.84 -0.3,-0.77 -1.92,-1.97 -3.6,-2.67 -1.68,-0.7 -4.1,-2.31 -5.38,-3.59 -1.8,-1.8 -3.43,-2.33 -7.2,-2.33 -4.39,0 -4.87,0.22 -4.8,2.22 0.05,1.46 -0.61,2.36 -1.91,2.62 -1.1,0.22 -3.07,1.25 -4.39,2.28 l -2.39,1.88 h 3.14 c 1.72,0 3.13,0.24 3.13,0.54 0,0.29 -1.13,2.76 -2.52,5.5 -1.38,2.73 -2.17,4.96 -1.75,4.95 0.43,-0.01 3.21,-0.66 6.2,-1.46 3.29,-0.87 7.23,-1.2 10,-0.83 5.21,0.7 15.78,5.86 17.44,8.52 2.12,3.4 2.85,1.74 2.4,-5.47 z"
     inkscape:connector-curvature="0"
     style="fill:#c60008"
     id="path2415" />
  <path
     d="m 289.2,144.24931 c 4.43,-9.86 11.29,-20.43 20.46,-31.47 4.55,-5.49 9.38,-12.02 10.74,-14.510005 2.42,-4.45 2.86701,-2.324413 1.44413,-13.403443 C 320.56393,74.897824 309.99156,24.255583 226.5,7.2233054 c -11.53,-2.353 -28.09,-4.075 -44.5,-4.6289 C 130.10032,0.84311388 94.566308,21.365908 87.18,31.658305 l -3.21,4.465 2.58,6.814 c 2.9,7.665 2.81,7.128 5.16,28.315 l 1.73,15.5 h 26.53 c 14.59,0 28.19,0.353 30.22,0.784 2.64,0.561 4.27,1.725 5.74,4.096 l 2.04,3.317 12.04,0.6 c 7.55,0.38 16.02,1.57 22.76,3.180002 16.44,3.950003 18.3,4.530003 24.45,7.640003 3.15,1.58 5.86,2.88 6.03,2.88 0.16,0 1.1,-1.48 2.07,-3.29 1.01,-1.88 3.72,-4.36 6.27,-5.75 3.48,-1.900005 4.09,-2.580005 2.7,-2.990005 -5.42,-1.6 -9.13,-4.46 -11.15,-8.611 -2.57,-5.304 -2.65,-8.745 -0.28,-13.184 2.02,-3.786 9.32,-9.927 12.85,-10.815 9.52884,-1.644351 13.57231,5.53714 19.87,10.1 2.65,1.738 2.66,1.733 7.29,-2.744 5.36,-5.185 10.49,-7.167 16.1,-6.218 5.48,0.926 12.62,5.885 13.95,9.692 2.45,7.051 0.85,10.522 -7.65,16.562 l -4.23,3.008 3.98,2.75 c 5.09,3.540005 10.98,10.240005 10.98,12.510005 0,3.09 -6.24,9.48 -11.48,11.77 -7.92,3.47 -10.9,3.74 -15.42,1.38 l -3.96,-2.06 -0.54,2.69 c -1.72,8.72 -1.76,9.93 -0.3,10.49 0.81,0.31 3.66,3.47 6.34,7.01 2.67,3.55 6.89,8.01 9.36,9.92 4.38,3.39 4.53,3.42 5.4,1.38 0.49,-1.15 2.2,-5.02 3.8,-8.6 z"
     inkscape:connector-curvature="0"
     style="fill:#009452"
     id="path2389"
     sodipodi:nodetypes="ccczcccccccsccccccscccccccccccccsccccccccc" />
  <path
     d="m 254.84,122.70931 c 1.63,-3.59 1.53,-3.7 -1.84,-1.96 -3.18,1.65 -3.8,3.01 -1.75,3.84 2.14,0.87 2.4,0.73 3.59,-1.88 z"
     inkscape:connector-curvature="0"
     style="fill:#000000"
     id="path2369" />
  <path
     d="m 262.5,136.64931 c -8.63,-8.1 -10.57,-9.13 -19.46,-10.39 -8.53,-1.21 -14.31,-4.66 -17.16,-10.24 -1.08,-2.12 -2.74,-4.1 -3.67,-4.38 -0.94,-0.28 -4.24,-1.84 -7.34,-3.45 -3.09,-1.62 -6.47,-2.94 -7.51,-2.94 -1.04,0 -4.36,-0.9 -7.37,-2.01 -5.19,-1.9 -21.77,-5.080005 -34.07,-6.520005 -6.85,-0.8 -8.28,0.31 -9.86,7.700005 -0.61,2.86 -1.59,5.76 -2.16,6.46 -1.57,1.88 -4.85,13.37 -3.82,13.37 1.2,0 5.92,-9.45 5.92,-11.86 0,-1.06 0.57,-2.14 1.26,-2.41 1.86,-0.71 27.77,1.03 32.32,2.17 2.15,0.54 5.72,1.5 7.92,2.12 2.2,0.62 6.03,1.5 8.51,1.96 2.48,0.45 6.08,1.5 8,2.33 1.92,0.82 5.52,2.03 7.99,2.67 2.48,0.65 5.78,1.81 7.33,2.6 1.56,0.78 3.36,1.43 4,1.43 1.21,0.01 2.12,0.45 12.17,5.98 13.15,7.23 22.05,11.84 23,11.91 0.55,0.04 -2.15,-2.89 -6,-6.5 z m -153.25,3.94 c 5.91,-0.35 10.76,-0.91 10.77,-1.24 0.01,-0.33 1.13,-7.8 2.49,-16.6 1.35,-8.8 2.47,-16.28 2.48,-16.63 0.02,-1.01 -5.11,-2.66 -10.1,-3.25 -2.53,-0.3 -8.45,-0.27 -13.16,0.06 l -8.55,0.61 -1.46,5.78 c -1.66,6.59 -2.12,6.15 7.78,7.44 5.86,0.76 14.25,3.28 15,4.49 0.29,0.47 0,2.01 -0.65,3.43 -1.16,2.54 -1.3,2.57 -12.45,2.57 H 90.12 l -0.62,4.75 c -0.35,2.62 -0.87,6.06 -1.18,7.66 l -0.54,2.9 5.36,-0.66 c 2.95,-0.37 10.2,-0.96 16.11,-1.31 z m 151.12,-12.59 c 0.95,-3.52 0.75,-13.27 -0.25,-12.2 -0.48,0.53 -1.64,3.33 -2.59,6.24 -1.36,4.19 -1.46,5.59 -0.5,6.75 1.7,2.05 2.64,1.83 3.34,-0.79 z m -14.25,-6.76 c 1.99,-0.56 6.04,-3.25 8.99,-6 2.96,-2.74 5.64,-4.99 5.97,-4.99 0.33,0 1.07,1.03 1.64,2.28 0.57,1.25 2.26,3.73 3.75,5.5 2.55,3.03 3.1,3.22 9.32,3.22 5.54,0 7.23,-0.43 10.48,-2.68 2.13,-1.48 4.49,-3.89 5.26,-5.37 1.28,-2.48 1.16,-2.98 -1.67,-6.83 -3.86,-5.25 -9.88,-8.730005 -16.61,-9.620005 -5.87,-0.77 -6.08,-2.11 -0.46,-3.02 5.75,-0.94 12.48,-3.536 14.96,-5.785 2.77,-2.511 3.08,-9.492 0.6,-13.285 -2.29,-3.49 -8.44,-6.407 -13.52,-6.407 -3.87,0 -4.74,0.508 -9.54,5.591 -3.98,4.207 -5.29,6.337 -5.29,8.607 0,2.339 -0.35,2.88 -1.58,2.409 -0.87,-0.334 -1.77,-0.607 -2,-0.607 -0.23,0 -0.42,-1.32 -0.42,-2.933 0,-3.484 -5.86,-8.791 -13.38,-12.117 -5.73,-2.534 -9.17,-1.993 -13.36,2.099 -6.15,6.014 -6.65,12.66 -1.43,18.917 2.74,3.281 3.06,3.391 11.75,3.831 4.9,0.25 9.22,0.93 9.58,1.5 0.4,0.62 -3.17,2.36 -9,4.370002 -12.82,4.440003 -14.96,7.100003 -11.78,14.700003 2.84,6.8 8.92,9.07 17.74,6.62 z"
     inkscape:connector-curvature="0"
     style="fill:#105a00"
     id="path2383" />
  <path
     d="m 98.5,150.77931 c 6.05,-0.8 12.75,-1.88 14.88,-2.41 5.82,-1.45 24.5,-11.14 25.05,-13 0.26,-0.89 2.77,-9.94 5.56,-20.12 6.44,-23.430005 5.58,-21.300005 8,-20.010005 1.71,0.92 2.01,0.78 2.01,-0.97 0,-1.2 -0.94,-2.439 -2.25,-2.966 -2.85,-1.15 -23.18,-3.057 -32.31,-3.031 -12.36,0.035 -32.56,2.737 -41.31,5.527 l -8.37,2.67 0.71,11.140005 c 0.4,6.13 0.79,11.21 0.88,11.3 0.08,0.09 2.33,-0.09 5,-0.39 l 4.85,-0.55 -0.69,-5.52 c -0.38,-3.03 -0.87,-6 -1.09,-6.6 -0.85,-2.34 1.52,-3.72 8.17,-4.77 7.67,-1.210003 38.15,-0.49 39.57,0.93 0.71,0.71 -2.61,38.31 -3.42,38.72 -3.39,1.7 -7.23,2.64 -13.97,3.43 -16.05,1.87 -24.26,2.25 -26.91,1.24 -2.46,-0.94 -2.69,-1.57 -3.35,-9.08 -0.4,-4.44 -0.83,-8.07 -0.96,-8.07 -2.58,0 -6.68,2.69 -7.19,4.72 -0.67,2.68 0.25,16.84 1.19,18.37 0.85,1.36 13.48,1.09 25.95,-0.56 z m -13.5,-10.59 c 0,-1.27 -0.69,-1.94 -2,-1.94 -2.29,0 -2.4,0.38 -0.95,3.1 1.23,2.3 2.95,1.63 2.95,-1.16 z m 0.63,-5.14 c 0.33,-0.54 -0.41,-0.82 -1.69,-0.63 -1.25,0.18 -2.46,0.86 -2.67,1.5 -0.45,1.39 3.44,0.61 4.36,-0.87 z m -0.38,-3.46 c -0.69,-0.28 -1.81,-0.28 -2.5,0 -0.69,0.28 -0.12,0.5 1.25,0.5 1.38,0 1.94,-0.22 1.25,-0.5 z m -8.19,-5.47 c 7.17,-1.81 10.3,-2.06 20.76,-1.6 10.16,0.43 12.42,0.27 12.88,-0.91 0.3,-0.8 0.33,-1.67 0.05,-1.94 -0.72,-0.72 -21.11,-3.28 -21.98,-2.76 -0.4,0.24 -3.19,0.62 -6.19,0.84 -5.55,0.4 -9.26,1.9 -13.33,5.39 -4.34,3.72 -3.47,3.83 7.81,0.98 z m 8.94,1.16 c 0,-0.53 -0.67,-0.71 -1.5,-0.39 -0.82,0.32 -1.5,0.75 -1.5,0.97 0,0.22 0.68,0.39 1.5,0.39 0.83,0 1.5,-0.43 1.5,-0.97 z m 60.68,-9.21 c -0.31,-0.8 -0.55,-0.57 -0.6,0.6 -0.04,1.05 0.19,1.64 0.53,1.31 0.33,-0.33 0.36,-1.19 0.07,-1.91 z m 2.32,-2.26 c 0,-0.24 -0.45,-0.72 -1,-1.06 -0.55,-0.34 -1,-0.14 -1,0.44 0,0.59 0.45,1.06 1,1.06 0.55,0 1,-0.2 1,-0.44 z m -63,-2.56 c 1.29,-0.83 1.27,-0.97 -0.19,-0.98 -0.93,-0.01 -1.97,0.43 -2.31,0.98 -0.78,1.27 0.54,1.27 2.5,0 z m 65,-2.44 c 0,-1.05 -1.92,-1.5 -2.49,-0.57 -0.34,0.56 0.07,1.01 0.93,1.01 0.86,0 1.56,-0.2 1.56,-0.44 z m -63,-5.56 c 0,-0.55 -0.65,-1 -1.44,-1 -0.79,0 -1.72,0.45 -2.06,1 -0.34,0.55 0.31,1 1.44,1 1.13,0 2.06,-0.45 2.06,-1 z m 64,-0.5 c 0,-0.82 -0.4,-1.5 -0.89,-1.5 -0.49,0 -1.15,0.68 -1.47,1.5 -0.35,0.92 0,1.5 0.89,1.5 0.81,0 1.47,-0.67 1.47,-1.5 z m 1.36,-5.000003 c -0.31,-0.82 -0.7,-1.500002 -0.86,-1.500002 -0.16,0 -0.54,0.680002 -0.86,1.500002 -0.35,0.910003 -0.01,1.500003 0.86,1.500003 0.87,0 1.21,-0.59 0.86,-1.500003 z"
     inkscape:connector-curvature="0"
     style="fill:#ffbd00"
     id="path2387" />
  <metadata
     id="metadata30">
    <rdf:RDF>
      <cc:Work>
        <dc:format>image/svg+xml</dc:format>
        <dc:type
           rdf:resource="http://purl.org/dc/dcmitype/StillImage" />
        <cc:license
           rdf:resource="http://creativecommons.org/publicdomain/zero/1.0/" />
        <dc:publisher>
          <cc:Agent
             rdf:about="http://openclipart.org/">
            <dc:title>Openclipart</dc:title>
          </cc:Agent>
        </dc:publisher>
        <dc:title />
      </cc:Work>
      <cc:License
         rdf:about="http://creativecommons.org/publicdomain/zero/1.0/">
        <cc:permits
           rdf:resource="http://creativecommons.org/ns#Reproduction" />
        <cc:permits
           rdf:resource="http://creativecommons.org/ns#Distribution" />
        <cc:permits
           rdf:resource="http://creativecommons.org/ns#DerivativeWorks" />
      </cc:License>
    </rdf:RDF>
  </metadata>
</svg>
