<?xml version="1.0" encoding="UTF-8" standalone="no"?>
<!-- Created with Inkscape (http://www.inkscape.org/) -->

<svg
   width="400.00006"
   height="399.99997"
   viewBox="0 0 80.000011 79.999992"
   version="1.1"
   id="svg1"
   inkscape:version="1.4 (86a8ad7, 2024-10-11)"
   sodipodi:docname="good.svg"
   xml:space="preserve"
   inkscape:export-filename="good.png"
   inkscape:export-xdpi="96"
   inkscape:export-ydpi="96"
   xmlns:inkscape="http://www.inkscape.org/namespaces/inkscape"
   xmlns:sodipodi="http://sodipodi.sourceforge.net/DTD/sodipodi-0.dtd"
   xmlns:xlink="http://www.w3.org/1999/xlink"
   xmlns="http://www.w3.org/2000/svg"
   xmlns:svg="http://www.w3.org/2000/svg"><sodipodi:namedview
     id="namedview1"
     pagecolor="#505050"
     bordercolor="#eeeeee"
     borderopacity="1"
     inkscape:showpageshadow="0"
     inkscape:pageopacity="0"
     inkscape:pagecheckerboard="0"
     inkscape:deskcolor="#505050"
     inkscape:document-units="px"
     inkscape:zoom="1.0469406"
     inkscape:cx="369.64846"
     inkscape:cy="254.5512"
     inkscape:window-width="1920"
     inkscape:window-height="1027"
     inkscape:window-x="-8"
     inkscape:window-y="1072"
     inkscape:window-maximized="1"
     inkscape:current-layer="layer1"
     showgrid="false"
     showguides="false" /><defs
     id="defs1"><linearGradient
       id="linearGradient19"
       inkscape:collect="always"><stop
         style="stop-color:#5da83b;stop-opacity:1;"
         offset="0"
         id="stop19" /><stop
         style="stop-color:#38772c;stop-opacity:1;"
         offset="1"
         id="stop20" /></linearGradient><linearGradient
       id="linearGradient18"
       inkscape:collect="always"><stop
         style="stop-color:#65b33f;stop-opacity:1;"
         offset="0"
         id="stop17" /><stop
         style="stop-color:#2e682c;stop-opacity:1;"
         offset="1"
         id="stop18" /></linearGradient><linearGradient
       id="linearGradient16"
       inkscape:collect="always"><stop
         style="stop-color:#65b33f;stop-opacity:1;"
         offset="0"
         id="stop15" /><stop
         style="stop-color:#2e682c;stop-opacity:1;"
         offset="1"
         id="stop16" /></linearGradient><linearGradient
       id="linearGradient14"
       inkscape:collect="always"><stop
         style="stop-color:#65b33f;stop-opacity:1;"
         offset="0"
         id="stop13" /><stop
         style="stop-color:#2e682c;stop-opacity:1;"
         offset="1"
         id="stop14" /></linearGradient><linearGradient
       id="linearGradient9"
       inkscape:collect="always"><stop
         style="stop-color:#65b33f;stop-opacity:1;"
         offset="0"
         id="stop9" /><stop
         style="stop-color:#2e682c;stop-opacity:1;"
         offset="1"
         id="stop10" /></linearGradient><linearGradient
       id="linearGradient3"
       inkscape:collect="always"><stop
         style="stop-color:#67b43f;stop-opacity:1;"
         offset="0"
         id="stop3" /><stop
         style="stop-color:#286325;stop-opacity:1;"
         offset="1"
         id="stop4" /></linearGradient><linearGradient
       inkscape:collect="always"
       xlink:href="#linearGradient3"
       id="linearGradient4"
       x1="150.74631"
       y1="84.925491"
       x2="132.26546"
       y2="55.207764"
       gradientUnits="userSpaceOnUse"
       gradientTransform="translate(-0.06754029,0.74294323)" /><linearGradient
       inkscape:collect="always"
       xlink:href="#linearGradient3"
       id="linearGradient6"
       gradientUnits="userSpaceOnUse"
       gradientTransform="matrix(0.01463074,1.0145722,1.0445111,-0.0016549,48.75436,-55.366694)"
       x1="157.36171"
       y1="78.42556"
       x2="128.49869"
       y2="66.192078" /><linearGradient
       inkscape:collect="always"
       xlink:href="#linearGradient3"
       id="linearGradient7"
       gradientUnits="userSpaceOnUse"
       gradientTransform="matrix(-0.03756383,1.0136341,-1.0242801,-0.03637372,247.88217,-52.487702)"
       x1="157.60338"
       y1="63.725296"
       x2="136.67773"
       y2="78.289078" /><linearGradient
       inkscape:collect="always"
       xlink:href="#linearGradient3"
       id="linearGradient8"
       gradientUnits="userSpaceOnUse"
       x1="138.91135"
       y1="61.716908"
       x2="156.8985"
       y2="85.450737"
       gradientTransform="rotate(-177.34256,147.72372,93.16788)" /><linearGradient
       inkscape:collect="always"
       xlink:href="#linearGradient14"
       id="linearGradient10"
       x1="145.54803"
       y1="59.079704"
       x2="154.37317"
       y2="94.958961"
       gradientUnits="userSpaceOnUse"
       gradientTransform="matrix(0.99233647,0.0649008,-0.0630725,1.0211015,6.7963133,-10.59818)" /><linearGradient
       inkscape:collect="always"
       xlink:href="#linearGradient9"
       id="linearGradient11"
       gradientUnits="userSpaceOnUse"
       x1="154.01244"
       y1="72.846985"
       x2="143.92992"
       y2="75.985558"
       gradientTransform="matrix(0.0380515,-1.0223505,0.95480481,0.04074337,50.378661,242.68411)" /><linearGradient
       inkscape:collect="always"
       xlink:href="#linearGradient16"
       id="linearGradient12"
       gradientUnits="userSpaceOnUse"
       gradientTransform="matrix(0.0829079,-1.0192819,-0.94927746,-0.08902194,224.93704,254.36248)"
       x1="153.42726"
       y1="81.432022"
       x2="144.96289"
       y2="80.78714" /><linearGradient
       inkscape:collect="always"
       xlink:href="#linearGradient18"
       id="linearGradient13"
       gradientUnits="userSpaceOnUse"
       x1="140.1125"
       y1="86.936066"
       x2="158.45721"
       y2="74.45166"
       gradientTransform="matrix(0.98024535,0.17165548,0.16681984,-1.0086599,-12.77565,163.61335)" /><linearGradient
       inkscape:collect="always"
       xlink:href="#linearGradient19"
       id="linearGradient20"
       x1="181.00798"
       y1="120.52565"
       x2="177.03928"
       y2="125.4561"
       gradientUnits="userSpaceOnUse"
       gradientTransform="matrix(0.9296059,0.06045902,-0.05908537,0.95121779,12.954973,-6.3424195)" /><filter
       inkscape:collect="always"
       style="color-interpolation-filters:sRGB"
       id="filter41"
       x="-0.017671299"
       y="-0.017216845"
       width="1.0353426"
       height="1.0344337"><feGaussianBlur
         inkscape:collect="always"
         stdDeviation="0.58220798"
         id="feGaussianBlur41" /></filter></defs><g
     inkscape:label="Layer 1"
     inkscape:groupmode="layer"
     id="layer1"
     transform="translate(-104.23581,-51.563698)"><path
       id="path26"
       style="display:inline;fill:#000000;stroke:#000000;stroke-width:1.30784;stroke-miterlimit:5;stroke-dasharray:none;stroke-opacity:1;paint-order:stroke fill markers"
       inkscape:label="SHAPE"
       d="m 139.11825,52.551262 c -5.35771,0.105986 -10.02621,3.973068 -10.95234,10.524085 -0.97654,6.90766 2.02321,11.532463 5.08242,14.908607 -4.29411,-3.585474 -9.55372,-6.43078 -15.39547,-6.334612 -10.28257,0.169278 -15.25403,10.097727 -9.79965,19.141384 -1.2144,2.755445 -3.16305,5.967617 -3.16165,9.680944 0.002,3.71338 1.41035,7.71712 8.36922,9.2996 5.8722,0.69312 11.27931,-1.23009 16.21151,-4.36086 -3.49492,3.9427 -6.75931,9.13835 -6.51615,13.93664 0.35299,6.96545 3.92563,8.94497 7.45513,9.52012 3.52951,0.57515 6.90526,-0.81074 9.72537,-1.55782 7.69411,6.66529 17.95425,3.39809 19.81629,-6.50673 0.50159,-2.66812 0.42148,-5.02785 -0.0209,-7.12789 6.78862,7.13051 14.13442,13.42076 20.82919,17.0683 1.69994,-1.88935 2.07573,-4.71331 2.18205,-7.72759 -7.19027,-1.73108 -13.18617,-6.44322 -17.45641,-10.36834 2.16123,0.87661 4.45418,1.42487 6.89782,1.53744 6.97308,-0.43586 8.91787,-4.16333 9.45641,-7.83202 0.53849,-3.66869 -0.88555,-7.158323 -1.6639,-10.077595 6.59426,-8.05155 3.21245,-18.666956 -6.72839,-20.500516 -5.67628,-1.046973 -11.20774,1.000088 -15.8968,3.946395 4.10587,-4.238278 8.20614,-11.030982 7.63663,-16.946758 -0.66822,-6.941214 -4.32674,-8.748776 -7.87851,-9.155857 -3.55177,-0.40708 -6.8609,1.13735 -9.64412,2.017411 -2.74583,-2.163249 -5.74139,-3.139855 -8.5478,-3.084338 z" /><path
       style="display:inline;fill:url(#linearGradient20);fill-opacity:1;stroke-width:0.848023;stroke-miterlimit:5;paint-order:stroke fill markers"
       d="m 151.41026,100.90356 11.46533,9.26033 c 4.24586,4.14043 11.26293,10.73178 20.0678,12.85157 -0.10631,3.01429 -0.48213,5.83835 -2.18208,7.72771 -8.4203,-4.58767 -17.87349,-13.35136 -25.94811,-22.71625 z"
       id="path18"
       inkscape:label="stem"
       sodipodi:nodetypes="cccccc" /><g
       id="g8"
       inkscape:label="LEAVES"
       transform="matrix(0.9296059,0.06045902,-0.05908537,0.95121779,12.954973,-6.3424186)"
       style="display:inline"><path
         style="opacity:1;fill:url(#linearGradient6);fill-opacity:1;stroke-width:0.9265;stroke-miterlimit:5;paint-order:stroke fill markers"
         d="m 147.72587,93.758124 c -8.24436,9.732956 -18.81677,21.693816 -32.53116,20.988676 -7.56103,-1.18307 -9.337,-5.27932 -9.58566,-9.16732 -0.24863,-3.88797 1.62548,-7.383968 2.74321,-10.351764 -6.44567,-9.097768 -1.78008,-19.832031 9.22536,-20.709491 15.75921,-1.256474 28.82464,17.283436 30.14825,19.239899 z"
         id="path5"
         sodipodi:nodetypes="czzczc"
         inkscape:label="leaf4" /><path
         style="opacity:1;fill:url(#linearGradient8);stroke-width:0.9;stroke-miterlimit:5;paint-order:stroke fill markers"
         d="m 147.83194,93.304168 c -3.45635,3.854927 -6.47105,6.769992 -10.9517,10.829472 -4.48065,4.05948 -11.5025,12.71015 -10.66076,19.97932 0.84174,7.26916 4.80128,9.09842 8.62105,9.46028 3.81978,0.36186 7.34427,-1.31906 10.316,-2.29333 8.68703,6.45497 19.46218,2.33525 20.79799,-8.16243 1.3358,-10.49768 -5.58351,-16.03663 -9.27119,-19.71481 -3.68768,-3.678189 -6.65769,-6.727057 -8.85139,-10.098502 z"
         id="path7"
         sodipodi:nodetypes="czzzczzc"
         inkscape:label="leaf3" /><path
         style="opacity:1;fill:url(#linearGradient7);fill-opacity:1;stroke-width:0.917652;stroke-miterlimit:5;paint-order:stroke fill markers"
         d="m 147.47438,93.695363 c 7.86225,10.002657 17.8939,21.895147 31.35928,21.646187 7.44193,-0.93121 9.27729,-4.96661 9.61012,-8.8446 0.33279,-3.87798 -1.42509,-7.434715 -2.45329,-10.438347 6.52923,-8.879461 2.19946,-19.764028 -8.57314,-21.006918 -15.4258,-1.77975 -28.60017,16.732083 -29.94297,18.643678 z"
         id="path6"
         sodipodi:nodetypes="czzczc"
         inkscape:label="leaf2" /><path
         style="opacity:1;fill:url(#linearGradient4);stroke-width:0.9;stroke-miterlimit:5;paint-order:stroke fill markers"
         d="m 147.48216,93.697745 c 3.27389,-4.011032 6.30063,-6.926406 11.03491,-11.231048 4.73428,-4.304642 10.36335,-13.242386 9.18548,-20.464707 -1.17787,-7.222322 -5.21796,-8.866031 -9.0504,-9.0504 -3.83245,-0.184368 -7.27521,1.658149 -10.19858,2.769151 -8.97696,-6.045251 -19.54952,-1.430381 -20.39717,9.117941 -0.84765,10.548322 6.88465,15.543115 10.7389,19.046363 3.85425,3.503248 6.3392,6.546591 8.68686,9.8127 z"
         id="path1"
         sodipodi:nodetypes="czzzczzc"
         inkscape:label="leaf1" /></g><g
       id="g20"
       inkscape:label="VEINS"
       style="display:inline"
       transform="matrix(0.93678498,0,0,0.93156047,6.5882885,3.530426)"><path
         style="fill:url(#linearGradient11);stroke-width:0.889906;stroke-miterlimit:5;paint-order:stroke fill markers"
         d="m 110.67922,93.236594 c 11.10042,-1.117487 22.21653,-1.297929 33.50247,0.627847 -13.61883,-7.146825 -25.80887,-5.208048 -33.50247,-0.627847 z"
         id="path10"
         sodipodi:nodetypes="ccc"
         inkscape:label="vein4" /><path
         style="fill:url(#linearGradient13);stroke-width:0.907783;stroke-miterlimit:5;paint-order:stroke fill markers"
         d="m 142.96284,130.27152 c 3.45231,-11.39734 3.93982,-20.05146 4.53853,-32.272779 3.86324,15.745399 1.47269,25.160749 -4.53853,32.272779 z"
         id="path12"
         sodipodi:nodetypes="ccc"
         inkscape:label="vein3" /><path
         style="fill:url(#linearGradient12);stroke-width:0.888662;stroke-miterlimit:5;paint-order:stroke fill markers"
         d="m 182.41428,98.710953 c -10.84854,-2.613316 -19.48851,-3.766649 -30.87941,-3.38634 14.31418,-5.243086 23.80911,-2.199983 30.87941,3.38634 z"
         id="path11"
         sodipodi:nodetypes="ccc"
         inkscape:label="vein2" /><path
         style="fill:url(#linearGradient10);stroke-width:0.907783;stroke-miterlimit:5;paint-order:stroke fill markers"
         d="m 149.69423,57.894906 c 0.81263,11.908796 0.56823,21.253951 -1.58041,33.289391 7.27857,-14.409243 5.84108,-24.945536 1.58041,-33.289391 z"
         id="path8"
         sodipodi:nodetypes="ccc"
         inkscape:label="vein1" /></g><path
       id="path41"
       style="display:inline;opacity:0.5;fill:#ffffff;stroke:none;stroke-width:1.4;stroke-miterlimit:5;stroke-dasharray:none;stroke-opacity:1;paint-order:stroke fill markers;filter:url(#filter41)"
       inkscape:label="highlight"
       d="m 138.46487,53.305924 c -4.97695,1.717454 -8.33087,7.170523 -8.35941,13.183694 0.002,3.988953 1.44187,8.588168 4.05941,11.181577 -1.24441,-2.624056 -2.90405,-6.554592 -2.91332,-9.844468 -5e-5,-9.625442 7.71887,-14.808305 13.95125,-14.434556 -2.01552,-0.538127 -4.71495,-0.582873 -6.73793,-0.08625 z m -29.74379,25.289589 c -2.10555,3.303521 -2.74376,8.138519 -1.05978,12.536176 -0.28004,-1.011857 -0.28488,-1.953508 -0.29814,-2.995499 -1.1e-4,-7.497655 6.87799,-13.242064 11.72996,-12.859408 4.85197,0.382656 10.22862,1.800342 12.44522,2.571448 -10.97328,-7.26318 -20.41413,-2.970799 -22.81726,0.747283 z m 66.01226,-0.941252 c -4.23029,0.02746 -8.3078,1.505509 -11.9789,3.583593 -0.46643,0.485982 -0.86201,0.995534 -1.18086,1.521094 2.52571,-1.780638 6.09884,-3.015305 9.95039,-3.438281 5.89348,-0.642665 11.50187,0.706307 14.24765,3.426953 -0.13047,-0.427072 -0.31612,-0.842389 -0.55507,-1.241797 -1.78639,-1.72799 -4.16221,-3.010114 -7.0961,-3.554297 -1.13612,-0.210729 -2.26676,-0.304537 -3.38711,-0.297265 z m -41.89609,31.151169 c -3.27705,2.45034 -5.64091,6.16863 -7.20742,9.91094 -1.42137,4.93341 -0.81325,9.83238 1.58359,12.75742 1.38725,1.43804 2.72975,2.24384 5.33946,2.64451 -5.65581,-2.38615 -7.25659,-7.95451 -5.23338,-15.57238 0.91958,-3.41968 3.39643,-7.42142 5.51775,-9.74051 z"
       sodipodi:nodetypes="scccccsccczcccccccsscccccccc"
       transform="matrix(0.93678498,0,0,0.93156047,6.5882885,3.530426)" /></g></svg>
